<svg width="148" height="50" viewBox="0 0 148 50" fill="none" xmlns="http://www.w3.org/2000/svg">
<path d="M139.547 14.5137V24.5294L125.049 24.532V14.5137H120.646V29.3947H121.16C126.394 29.3921 131.627 29.3869 136.86 29.3791C137.877 29.3778 138.895 29.3748 139.912 29.3717C141.291 29.3676 142.67 29.3635 144.049 29.3636V31.0889H148V24.4886H144.091C144.035 24.4014 144.035 24.245 144.035 23.9643V15.1059C144.035 14.963 144.026 14.8189 144.017 14.6824C144.014 14.6245 144.01 14.5681 144.008 14.5137H139.547Z" fill="#00578A"/>
<path d="M88.5869 20.3705V29.3486H84.1445V14.5186C85.312 14.5186 86.4627 14.5186 87.6121 14.525C87.7725 14.5496 87.927 14.6035 88.0681 14.684C92.0331 16.3701 95.9956 18.061 99.9555 19.7566C100.114 19.8315 100.287 19.8689 100.462 19.866C100.637 19.863 100.809 19.8199 100.965 19.7398C104.801 18.0416 108.642 16.3551 112.488 14.6801C112.724 14.5798 112.978 14.5258 113.235 14.5211C114.274 14.5043 115.312 14.5211 116.389 14.5211V29.368H111.969V20.4196C111.727 20.5165 111.564 20.576 111.408 20.6457C107.943 22.1794 104.48 23.7164 101.019 25.2569C100.865 25.3379 100.694 25.382 100.52 25.3856C100.347 25.3891 100.174 25.3522 100.017 25.2776C96.41 23.7078 92.7973 22.1492 89.179 20.6018C89.0043 20.5204 88.8232 20.4609 88.5869 20.3705Z" fill="#00578A"/>
<path d="M56.6094 14.5137H80.0571V15.2367C80.0571 16.3925 80.0327 17.5482 80.0674 18.704C80.0829 19.1907 79.9118 19.2934 79.4551 19.2922C73.5555 19.2785 67.6559 19.2754 61.7564 19.2832H61.0488V29.1869H56.6094V14.5137Z" fill="#00578A"/>
<path d="M56.5195 36.7058V33.7168H58.6933V34.1508H57.0729V36.7058H56.5195Z" fill="#151515"/>
<path d="M60.5954 36.7061C60.3277 36.7126 60.0631 36.6483 59.8291 36.5198C59.6126 36.3946 59.4376 36.2099 59.3257 35.9881C59.2006 35.7334 59.1391 35.4529 59.1462 35.17C59.1384 34.8849 59.2 34.6022 59.3257 34.3454C59.4376 34.1237 59.6126 33.9389 59.8291 33.8137C60.0629 33.6846 60.3276 33.6203 60.5954 33.6275C60.8639 33.6208 61.1293 33.6851 61.3642 33.8137C61.5813 33.9379 61.7561 34.1229 61.8663 34.3454C61.99 34.6005 62.0507 34.8809 62.0433 35.1636C62.0509 35.4483 61.9903 35.7309 61.8663 35.9881C61.7561 36.2106 61.5813 36.3957 61.3642 36.5198C61.1291 36.6478 60.8638 36.7121 60.5954 36.7061ZM60.5954 36.2796C60.7184 36.284 60.8408 36.2609 60.9534 36.212C61.066 36.163 61.166 36.0896 61.2458 35.9971C61.4097 35.807 61.4917 35.5292 61.4917 35.1636C61.4917 34.798 61.4097 34.5223 61.2458 34.3365C61.1651 34.2453 61.0649 34.1731 60.9524 34.1251C60.8398 34.0771 60.7179 34.0545 60.5954 34.059C60.4728 34.0544 60.3508 34.0769 60.2383 34.1249C60.1257 34.1729 60.0255 34.2452 59.9449 34.3365C59.7836 34.5214 59.7029 34.7971 59.7029 35.1636C59.7029 35.53 59.7836 35.8079 59.9449 35.9971C60.0246 36.0897 60.1245 36.1633 60.2372 36.2122C60.3499 36.2612 60.4724 36.2842 60.5954 36.2796Z" fill="#151515"/>
<path d="M62.9085 37.9746V34.3919C62.9085 34.2764 62.9085 34.1583 62.8952 34.0389C62.8819 33.9195 62.8753 33.8 62.8594 33.6806H63.3899L63.4563 34.3738H63.3899C63.4457 34.1504 63.5848 33.9554 63.7799 33.8273C63.9911 33.6904 64.2403 33.6206 64.4935 33.6274C64.7445 33.6219 64.992 33.6863 65.2071 33.813C65.4152 33.9413 65.5799 34.1269 65.6806 34.3465C65.798 34.609 65.8551 34.8935 65.8477 35.1799C65.8549 35.4671 65.7979 35.7524 65.6806 36.0158C65.5808 36.237 65.4159 36.424 65.2071 36.5532C64.992 36.6799 64.7445 36.7443 64.4935 36.7388C64.2433 36.7446 63.9974 36.6748 63.7892 36.5389C63.5958 36.4097 63.455 36.2181 63.3913 35.9976H63.4576V37.9746H62.9085ZM64.3675 36.3079C64.4941 36.3129 64.6203 36.2898 64.7365 36.2404C64.8528 36.1909 64.956 36.1164 65.0386 36.0223C65.2049 35.8302 65.288 35.5494 65.288 35.1799C65.288 34.8104 65.2049 34.5317 65.0386 34.3439C64.9552 34.2512 64.8516 34.1779 64.7355 34.1294C64.6194 34.0809 64.4936 34.0584 64.3675 34.0635C64.2426 34.0588 64.1181 34.0816 64.0034 34.1301C63.8886 34.1786 63.7864 34.2517 63.7043 34.3439C63.5398 34.5309 63.4576 34.8095 63.4576 35.1799C63.4576 35.5502 63.5398 35.8311 63.7043 36.0223C63.7861 36.1166 63.8889 36.1914 64.0047 36.2409C64.1206 36.2904 64.2465 36.3133 64.3728 36.3079H64.3675Z" fill="#151515"/>
<path d="M67.931 36.7061C67.6634 36.7124 67.3988 36.6482 67.1648 36.5199C66.949 36.3941 66.7746 36.2094 66.6626 35.9881C66.5375 35.7334 66.476 35.4529 66.4831 35.17C66.4753 34.8849 66.5369 34.6021 66.6626 34.3454C66.7746 34.1241 66.949 33.9395 67.1648 33.8137C67.3986 33.6848 67.6633 33.6205 67.931 33.6275C68.1996 33.6206 68.4651 33.6849 68.6999 33.8137C68.9173 33.9378 69.0926 34.1229 69.2034 34.3454C69.3267 34.6006 69.3873 34.8809 69.3803 35.1636C69.3873 35.4483 69.3267 35.7307 69.2034 35.9881C69.0926 36.2107 68.9173 36.3957 68.6999 36.5199C68.4648 36.648 68.1995 36.7123 67.931 36.7061ZM67.931 36.2797C68.054 36.2841 68.1764 36.2609 68.2891 36.212C68.4017 36.1631 68.5017 36.0896 68.5815 35.9971C68.7446 35.807 68.8261 35.5292 68.8261 35.1636C68.8261 34.7979 68.7446 34.5222 68.5815 34.3364C68.5008 34.2454 68.4005 34.1732 68.288 34.1253C68.1755 34.0773 68.0535 34.0546 67.931 34.059C67.8085 34.0542 67.6864 34.0767 67.5739 34.1247C67.4613 34.1727 67.3611 34.2451 67.2806 34.3364C67.1184 34.5214 67.0373 34.7971 67.0373 35.1636C67.0373 35.53 67.1184 35.8079 67.2806 35.9971C67.3602 36.0898 67.4601 36.1635 67.5728 36.2124C67.6855 36.2614 67.808 36.2843 67.931 36.2797Z" fill="#151515"/>
<path d="M70.0156 37.4304V36.252H70.3441C70.4855 36.037 70.5858 35.7985 70.6402 35.5481C70.7061 35.2314 70.737 34.9085 70.7324 34.5853V33.7168H72.8891V36.252H73.3669V37.4304H72.9008V36.6652H70.4818V37.4304H70.0156ZM70.8583 36.2571H72.3814V34.13H71.2128V34.6822C71.2135 34.9727 71.1835 35.2624 71.1232 35.5468C71.072 35.7963 70.9803 36.0361 70.8518 36.2571H70.8583Z" fill="#151515"/>
<path d="M75.4086 36.706C75.132 36.7128 74.8584 36.6486 74.6155 36.5198C74.3914 36.3942 74.2106 36.2069 74.096 35.9816C73.966 35.7214 73.9025 35.4346 73.9109 35.1455C73.9023 34.8618 73.9669 34.5806 74.0986 34.3273C74.2187 34.1074 74.4026 33.9266 74.6274 33.8072C74.8686 33.6832 75.1384 33.6213 75.4112 33.6274C75.6082 33.6269 75.8037 33.6599 75.9889 33.725C76.1617 33.7816 76.3181 33.8776 76.4449 34.005L76.2572 34.3838C76.1459 34.277 76.0132 34.1935 75.8673 34.1385C75.7338 34.0872 75.5918 34.0602 75.4482 34.0589C75.3166 34.0523 75.1851 34.0739 75.0631 34.1223C74.9411 34.1707 74.8316 34.2447 74.7424 34.3389C74.5723 34.5264 74.4872 34.7974 74.4872 35.1519C74.4669 35.4485 74.5575 35.7422 74.7424 35.979C74.8301 36.0757 74.9391 36.1519 75.0613 36.2019C75.1835 36.252 75.3158 36.2745 75.4482 36.268C75.5898 36.2665 75.7299 36.2404 75.862 36.191C76.0097 36.1375 76.1446 36.0553 76.2586 35.9495L76.4463 36.322C76.3171 36.4524 76.1575 36.5507 75.981 36.6084C75.7973 36.6725 75.6037 36.7055 75.4086 36.706Z" fill="#151515"/>
<path d="M77.1709 36.7058V33.7168H77.7095V34.953H78.2585L79.2323 33.7168H79.8284L78.6977 35.1687L78.5539 35.0033C78.6588 35.0118 78.761 35.0408 78.8546 35.0886C78.9461 35.1412 79.0282 35.2084 79.0977 35.2875C79.1925 35.3973 79.2778 35.5148 79.3526 35.6388L79.9787 36.7019H79.3892L78.8415 35.7809C78.7932 35.6901 78.7325 35.6062 78.6611 35.5316C78.6053 35.4734 78.5363 35.4291 78.4598 35.4025C78.3689 35.3769 78.2745 35.3652 78.18 35.3676H77.7095V36.6981L77.1709 36.7058Z" fill="#151515"/>
<path d="M81.8809 36.7061C81.6131 36.7126 81.3484 36.6483 81.1143 36.5198C80.8977 36.3946 80.7227 36.2099 80.6107 35.9881C80.486 35.7333 80.4249 35.4528 80.4324 35.17C80.4242 34.885 80.4853 34.6023 80.6107 34.3454C80.7227 34.1237 80.8977 33.9389 81.1143 33.8137C81.3482 33.6846 81.613 33.6203 81.8809 33.6275C82.1495 33.6207 82.4151 33.685 82.65 33.8137C82.8672 33.9379 83.0421 34.1229 83.1524 34.3454C83.2761 34.6005 83.3368 34.8809 83.3294 35.1636C83.3371 35.4483 83.2764 35.7309 83.1524 35.9881C83.0421 36.2106 82.8672 36.3957 82.65 36.5198C82.4149 36.648 82.1495 36.7123 81.8809 36.7061ZM81.8809 36.2796C82.0039 36.284 82.1264 36.2609 82.2391 36.212C82.3518 36.163 82.4518 36.0896 82.5316 35.9971C82.6956 35.807 82.7776 35.5292 82.7776 35.1636C82.7776 34.798 82.6956 34.5223 82.5316 34.3365C82.4509 34.2453 82.3506 34.1731 82.238 34.1251C82.1254 34.0771 82.0034 34.0545 81.8809 34.059C81.7583 34.0544 81.6362 34.0769 81.5236 34.1249C81.411 34.1729 81.3107 34.2452 81.2302 34.3365C81.0688 34.5214 80.9881 34.7971 80.9881 35.1636C80.9881 35.53 81.0688 35.8079 81.2302 35.9971C81.3099 36.0897 81.4099 36.1633 81.5226 36.2122C81.6353 36.2612 81.7578 36.2842 81.8809 36.2796Z" fill="#151515"/>
<path d="M84.1445 36.699V33.703H84.6529V36.1941H84.4865L86.3974 33.7095H86.8618V36.7055H86.3535V34.2157H86.5251L84.6089 36.7055L84.1445 36.699ZM85.5032 33.4298C85.3376 33.4317 85.1734 33.4013 85.0201 33.3405C84.876 33.2831 84.7473 33.1945 84.6435 33.0816C84.5331 32.9586 84.4526 32.813 84.408 32.6556L84.726 32.5417C84.7807 32.7077 84.885 32.8542 85.0254 32.9624C85.1665 33.0538 85.3338 33.0992 85.5032 33.0919C85.6739 33.0971 85.8423 33.052 85.9862 32.9624C86.1334 32.8525 86.2478 32.7063 86.3175 32.5391L86.6169 32.6465C86.5392 32.8847 86.3836 33.0915 86.1738 33.2356C85.9751 33.3639 85.7416 33.4315 85.5032 33.4298Z" fill="#151515"/>
<path d="M89.4893 36.7058V33.7168H89.948L91.073 35.6724L92.2033 33.7168H92.6594V36.7058H92.1729V34.3239H92.3051L91.2092 36.2253H90.9368L89.8422 34.3174H89.9744V36.7058H89.4893Z" fill="#151515"/>
<path d="M95.0178 36.7065C94.5412 36.7065 94.1647 36.5703 93.8884 36.298C93.6125 36.027 93.4752 35.6558 93.4752 35.1754C93.4677 34.8921 93.5299 34.6113 93.6565 34.3572C93.7699 34.1346 93.9446 33.9485 94.1604 33.8203C94.3876 33.6887 94.6472 33.622 94.9103 33.6277C95.1546 33.6195 95.3961 33.6801 95.6071 33.8023C95.7996 33.9188 95.9515 34.0909 96.0423 34.2956C96.1471 34.5339 96.198 34.7922 96.1913 35.0521V35.2294H93.8975V34.9096H95.8221L95.7211 34.9866C95.737 34.7318 95.6643 34.4793 95.5152 34.2712C95.4416 34.1845 95.3485 34.1161 95.2435 34.0715C95.1385 34.0269 95.0244 34.0073 94.9103 34.0143C94.7823 34.0075 94.6544 34.031 94.5374 34.0828C94.4203 34.1346 94.3172 34.2133 94.2368 34.3123C94.0682 34.5488 93.9851 34.8348 94.0011 35.1241V35.178C94.0011 35.5402 94.0917 35.8138 94.2731 35.9988C94.3725 36.0943 94.4908 36.1683 94.6206 36.2161C94.7503 36.2638 94.8887 36.2843 95.0269 36.2762C95.1966 36.278 95.3654 36.2523 95.5268 36.2004C95.6908 36.1435 95.8424 36.0564 95.9737 35.9435L96.1524 36.316C96.0063 36.4442 95.8346 36.5405 95.6486 36.5986C95.4459 36.6693 95.2327 36.7057 95.0178 36.7065Z" fill="#151515"/>
<path d="M96.7344 37.4304V36.252H97.0711C97.216 36.037 97.3188 35.7985 97.3746 35.5481C97.4421 35.2314 97.4738 34.9085 97.4691 34.5853V33.7168H99.6864V36.252H100.176V37.4304H99.6864V36.6652H97.2188V37.4304H96.7344ZM97.5982 36.2571H99.1541V34.13H97.9562V34.6822C97.9569 34.9727 97.9261 35.2624 97.8644 35.5468C97.8156 35.7957 97.7257 36.0354 97.5982 36.2571Z" fill="#151515"/>
<path d="M100.811 36.6993V33.7168H101.319V36.1967H101.154L103.063 33.7232H103.528V36.7058H103.019V34.2272H103.191L101.276 36.7058L100.811 36.6993Z" fill="#151515"/>
<path d="M107.14 37.521V36.7377H104.524V33.7168H105.066V36.3121H106.581V33.7168H107.123V36.3121H107.604V37.5184L107.14 37.521Z" fill="#151515"/>
<path d="M108.329 36.6993V33.7168H108.837V36.1967H108.672L110.581 33.7232H111.046V36.7058H110.538V34.2272H110.71L108.795 36.7058L108.329 36.6993Z" fill="#151515"/>
<path d="M112.042 36.7058V33.7168H112.593V34.953H114.212V33.7168H114.759V36.7058H114.212V35.3805H112.593V36.7058H112.042Z" fill="#151515"/>
<path d="M117.076 36.706C116.799 36.7128 116.525 36.6486 116.282 36.5198C116.057 36.3946 115.876 36.2072 115.762 35.9816C115.631 35.7215 115.567 35.4347 115.575 35.1455C115.567 34.8617 115.632 34.5805 115.764 34.3273C115.883 34.1087 116.065 33.9281 116.287 33.8072C116.529 33.6832 116.8 33.6213 117.074 33.6274C117.271 33.6269 117.467 33.6599 117.652 33.725C117.825 33.7816 117.982 33.8776 118.109 34.005L117.92 34.3838C117.808 34.2773 117.676 34.1938 117.53 34.1385C117.396 34.0871 117.254 34.0601 117.109 34.0589C116.978 34.0525 116.846 34.0742 116.724 34.1226C116.602 34.171 116.493 34.2448 116.404 34.3389C116.232 34.5264 116.147 34.7974 116.148 35.1519C116.128 35.4485 116.219 35.7422 116.404 35.979C116.491 36.0756 116.6 36.1517 116.723 36.2018C116.845 36.2518 116.977 36.2744 117.109 36.268C117.251 36.2668 117.392 36.2407 117.524 36.191C117.672 36.1378 117.807 36.0556 117.921 35.9495L118.11 36.322C117.981 36.4524 117.821 36.5507 117.644 36.6084C117.462 36.6717 117.27 36.7047 117.076 36.706Z" fill="#151515"/>
<path d="M118.836 36.7058V33.7168H119.384V34.953H119.931L120.905 33.7168H121.5L120.364 35.1687L120.219 35.0033C120.324 35.0115 120.426 35.0405 120.52 35.0886C120.612 35.1409 120.694 35.2081 120.764 35.2875C120.858 35.398 120.943 35.5154 121.019 35.6388L121.644 36.7019H121.056L120.508 35.7809C120.46 35.6901 120.399 35.6062 120.327 35.5316C120.272 35.4734 120.203 35.4291 120.126 35.4025C120.035 35.377 119.941 35.3653 119.846 35.3676H119.384V36.6981L118.836 36.7058Z" fill="#151515"/>
<path d="M122.186 36.6993V33.7168H122.694V36.1967H122.529L124.437 33.7232H124.903V36.7058H124.401V34.2272H124.573L122.658 36.7058L122.186 36.6993Z" fill="#151515"/>
<path d="M125.9 36.6991V33.7068H126.408V36.1947H126.246L128.153 33.7132H128.618V36.7055H128.106V34.2188H128.277L126.364 36.7055L125.9 36.6991ZM127.257 33.4339C127.093 33.437 126.93 33.4084 126.777 33.3499C126.634 33.2922 126.505 33.2038 126.401 33.0912C126.292 32.9678 126.212 32.8226 126.166 32.6658L126.484 32.552C126.539 32.7134 126.641 32.8557 126.777 32.9619C126.918 33.0536 127.084 33.0989 127.253 33.0912C127.424 33.0966 127.593 33.0515 127.737 32.9619C127.884 32.8524 127.997 32.7063 128.066 32.5391L128.367 32.6464C128.288 32.8844 128.133 33.091 127.923 33.2348C127.726 33.364 127.494 33.4333 127.257 33.4339Z" fill="#151515"/>
<path d="M133.861 37.521V36.7377H131.244V33.7168H131.786V36.3121H133.301V33.7168H133.842V36.3121H134.324V37.5184L133.861 37.521Z" fill="#151515"/>
<path d="M136.411 36.7065C135.934 36.7065 135.558 36.5705 135.283 36.2985C135.005 36.0279 134.868 35.6571 134.868 35.1773C134.86 34.8934 134.921 34.6117 135.047 34.3563C135.161 34.1343 135.335 33.9485 135.551 33.8201C135.779 33.6884 136.039 33.6217 136.302 33.6277C136.547 33.6196 136.788 33.68 137 33.8021C137.191 33.9192 137.343 34.0909 137.435 34.2948C137.539 34.533 137.59 34.7908 137.584 35.0503V35.2274H135.292V34.908H137.216L137.115 34.9849C137.131 34.7304 137.058 34.4782 136.909 34.2704C136.835 34.1838 136.743 34.1155 136.638 34.071C136.533 34.0264 136.419 34.0068 136.305 34.0138C136.177 34.0069 136.049 34.0303 135.932 34.0821C135.815 34.1338 135.712 34.2124 135.631 34.3114C135.461 34.5468 135.376 34.8329 135.393 35.1222V35.1761C135.393 35.5378 135.482 35.8175 135.664 35.9958C135.763 36.091 135.882 36.1648 136.011 36.2125C136.141 36.2602 136.28 36.2807 136.418 36.2729C136.587 36.2747 136.756 36.2492 136.918 36.1972C137.082 36.1404 137.234 36.0534 137.365 35.9407L137.544 36.3127C137.398 36.4404 137.227 36.5365 137.041 36.5949C136.839 36.6665 136.626 36.7042 136.411 36.7065Z" fill="#151515"/>
<path d="M138.399 36.7058V33.7168H138.944V34.953H140.567V33.7168H141.117V36.7058H140.567V35.3805H138.944V36.7058H138.399Z" fill="#151515"/>
<path d="M142.749 36.7058V34.1508H141.66V33.7168H144.377V34.1508H143.29V36.7058H142.749Z" fill="#151515"/>
<path d="M144.97 37.9746V34.3919C144.97 34.2764 144.97 34.1583 144.958 34.0389C144.946 33.9195 144.937 33.8 144.921 33.6806H145.457L145.523 34.3738H145.457C145.512 34.1504 145.651 33.9555 145.846 33.8273C146.057 33.6904 146.306 33.6206 146.559 33.6274C146.809 33.6219 147.056 33.6863 147.27 33.813C147.477 33.9414 147.641 34.127 147.741 34.3465C147.859 34.6087 147.917 34.8933 147.909 35.1799C147.917 35.4673 147.859 35.7527 147.741 36.0158C147.642 36.2368 147.478 36.4239 147.27 36.5532C147.056 36.6799 146.809 36.7443 146.559 36.7388C146.309 36.7448 146.063 36.675 145.855 36.5389C145.662 36.4097 145.522 36.2181 145.458 35.9976H145.524V37.9746H144.97ZM146.425 36.3079C146.551 36.3129 146.677 36.2899 146.793 36.2404C146.909 36.1909 147.012 36.1164 147.094 36.0223C147.261 35.8302 147.343 35.5498 147.343 35.1799C147.343 34.8099 147.261 34.5309 147.094 34.3439C147.011 34.2512 146.908 34.1779 146.792 34.1294C146.676 34.0809 146.551 34.0584 146.425 34.0635C146.3 34.0588 146.176 34.0816 146.062 34.1301C145.947 34.1786 145.845 34.2517 145.764 34.3439C145.596 34.5283 145.512 34.8069 145.512 35.1799C145.512 35.5528 145.594 35.8336 145.758 36.0223C145.84 36.1173 145.944 36.1925 146.06 36.2421C146.177 36.2916 146.303 36.3141 146.43 36.3079H146.425Z" fill="#151515"/>
<path d="M7.51966 30.8885C7.46437 29.5114 8.52526 28.7729 9.00733 30.7972C9.4894 32.8215 10.1443 37.3383 10.1443 37.3383C10.1443 37.3383 7.59914 36.8925 7.62678 36.7118C7.65443 36.531 7.51966 30.8885 7.51966 30.8885Z" fill="#00578A"/>
<path d="M5.07478 27.5767C5.00708 25.8765 6.32285 24.9724 6.91999 27.4635C7.51712 29.9545 8.33297 35.5268 8.33297 35.5268C8.33297 35.5268 5.17372 34.9778 5.20844 34.7547C5.24315 34.5317 5.07478 27.5767 5.07478 27.5767Z" fill="#007D99"/>
<path d="M2.61479 25.1384C2.54007 23.2474 3.97334 22.2382 4.62204 25.0129C5.27075 27.7877 6.15889 33.9887 6.15889 33.9887C6.15889 33.9887 2.0459 29.6908 2.08326 29.4466C2.12062 29.2025 2.61479 25.1384 2.61479 25.1384Z" fill="#01A6A0"/>
<path d="M19.2239 49.8396C18.6434 40.7198 9.1741 40.6621 5.10882 37.4276C1.04353 34.1931 0.150436 25.9369 0.401188 24.0845C0.651941 22.232 1.63606 21.317 2.45358 23.9042C3.2711 26.4915 4.03538 31.1509 7.11998 33.3038C10.2046 35.4567 15.9842 35.74 12.6949 33.3622C8.40123 30.2581 9.14475 27.2579 10.1647 26.6306C10.9446 26.1508 12.7705 29.5096 15.3141 30.8814C17.8577 32.2531 21.6631 33.3322 23.4235 37.6054C25.4248 42.4631 19.2239 49.8396 19.2239 49.8396Z" fill="#00C6BF"/>
<path d="M38.5215 4.7106C35.7189 2.79635 31.0624 1.70103 26.4932 4.64194C24.6409 6.40683 23.0836 8.79833 22.0339 11.9041C22.0339 11.9041 16.6621 5.98959 8.06762 9.21549C-0.526897 12.4414 0.0065035 21.7603 0.0065035 21.7603C0.0065035 21.7603 2.47972 14.172 10.7501 13.6913C19.0204 13.2106 23.3267 21.1843 23.3267 21.1843C23.3267 21.1843 24.3768 13.1058 31.877 11.183C38.7941 9.41635 42.9568 14.8536 41.2073 21.6213C44.1882 14.7334 42.9756 7.75109 38.5215 4.7106Z" fill="#00578A"/>
<path d="M35.1434 33.6098C35.1434 33.6098 28.0626 25.2034 15.5791 29.6923C15.5791 29.6923 21.9587 29.557 24.8643 36.8426C26.6723 41.3761 22.2843 48.0279 22.2843 48.0279C22.2843 48.0279 29.9997 41.6863 35.1434 33.6098Z" fill="#00578A"/>
<path d="M47.9956 6.32404C43.763 0.0969583 33.183 -1.7497 26.4735 4.62299C31.0461 1.68847 35.7061 2.78141 38.5107 4.6915C42.9734 7.72538 44.1749 14.6856 41.2055 21.5688C41.0228 22.2669 40.7887 22.9506 40.5052 23.6143C37.6457 30.3433 34.2334 34.626 34.2334 34.626C29.2404 42.1636 22.1006 48.1177 22.1006 48.1177C49.7554 36.5303 55.2509 17.0069 47.9956 6.32404Z" fill="#00C6BF"/>
<path style="mix-blend-mode:multiply" opacity="0.29" d="M38.1044 11.8085C41.8083 14.0819 41.8759 18.6762 41.1269 21.5792C44.0924 14.6977 42.8832 7.73916 38.4419 4.70604C35.6474 2.79643 31.0042 1.70377 26.4482 4.63755C30.1286 2.49502 38.6962 0.754954 38.1044 11.8085Z" fill="#00578A"/>
<path style="mix-blend-mode:multiply" opacity="0.29" d="M32.6187 31.3613C31.1161 36.7567 24.9859 45.3517 22.2812 48.0272C22.2812 48.0272 28.8323 42.6917 35.1429 33.4595C34.3616 32.7402 33.5202 31.9608 32.6187 31.3613Z" fill="#00578A"/>
</svg>
